<?xml version="1.0" standalone="no"?>
<!DOCTYPE svg PUBLIC "-//W3C//DTD SVG 20010904//EN"
 "http://www.w3.org/TR/2001/REC-SVG-20010904/DTD/svg10.dtd">
<svg version="1.0" xmlns="http://www.w3.org/2000/svg"
 width="192.000000pt" height="192.000000pt" viewBox="0 0 192.000000 192.000000"
 preserveAspectRatio="xMidYMid meet">
<metadata>
Created by potrace 1.14, written by Peter Selinger 2001-2017
</metadata>
<g transform="translate(0.000000,192.000000) scale(0.100000,-0.100000)"
fill="#000000" stroke="none">
<path d="M934 1737 c-10 -11 -151 -140 -198 -180 -12 -10 -55 -49 -96 -86 -41
-38 -93 -85 -115 -104 -22 -20 -38 -37 -35 -40 3 -2 65 -27 137 -56 73 -29
131 -57 128 -61 -2 -4 -84 -68 -181 -141 -97 -74 -194 -148 -214 -165 l-38
-31 221 -88 c122 -48 236 -94 252 -100 17 -7 38 -15 48 -19 15 -5 17 -20 17
-116 0 -110 0 -112 29 -141 23 -23 38 -29 71 -29 33 0 48 6 71 29 29 29 29 31
29 139 l0 109 183 73 c100 40 196 78 212 85 17 7 56 23 87 35 l57 23 -53 41
c-29 23 -127 97 -219 166 -91 69 -165 129 -164 134 2 5 10 11 18 12 12 3 115
43 227 90 l32 13 -47 43 c-27 24 -50 45 -53 48 -3 3 -39 34 -80 70 -41 36 -80
70 -86 75 -6 6 -42 38 -80 71 -139 123 -140 124 -160 101z"/>
<path d="M430 423 c-36 -49 -67 -90 -70 -93 -3 -3 -23 -30 -45 -60 -22 -30
-48 -64 -57 -74 -10 -11 -18 -25 -18 -30 0 -8 218 -11 725 -11 399 0 725 2
725 5 0 3 -56 82 -123 175 l-123 170 -165 3 -165 2 -1 -40 c-1 -44 -36 -100
-76 -122 -28 -15 -126 -15 -154 0 -39 21 -74 77 -76 121 l-1 41 -156 0 -156 0
-64 -87z"/>
</g>
</svg>
